<svg height="511pt" viewBox="0 -77 511.98121 511" fill="#8ab53b" width="511pt" xmlns="http://www.w3.org/2000/svg"><path d="m382.417969 14.753906-149.507813 158.152344-46.851562 49.566406s-.007813 0-.007813.007813c-1.765625 1.871093-4.171875 3.214843-6.800781 2.933593h-.011719c-.019531 0-.046875 0-.074219 0-2.613281-.019531-5.09375-1.128906-6.851562-3.054687l-110.917969-121.085937-61.394531 61.253906 179.296875 190.183594 112.648437-117.5625 151.980469-158.605469zm0 0"/><path d="m461.589844 85.269531-164.9375 172.128907-95.417969 99.570312h44.660156l260.789063-278.171875zm0 0"/><path d="m80.1875 94 99.144531 108.234375 33.65625-35.601563-79.847656-80.234374zm0 0"/><path d="m402.113281 7.902344 58.265625 58.558594 51.601563-7.414063-58.273438-58.554687zm0 0"/></svg>