<svg width="241" height="48" viewBox="0 0 241 48" fill="none" xmlns="http://www.w3.org/2000/svg">
<path d="M2.268 37V11.8H14.58C15.852 11.8 17.016 11.992 18.072 12.376C19.152 12.76 20.076 13.3 20.844 13.996C21.612 14.668 22.212 15.484 22.644 16.444C23.076 17.404 23.292 18.46 23.292 19.612C23.292 21.196 22.836 22.612 21.924 23.86C21.036 25.108 19.848 26.032 18.36 26.632L23.94 37H18.108L13.176 27.352H7.488V37H2.268ZM14.112 16.3H7.488V23.068H14.112C15.288 23.068 16.224 22.756 16.92 22.132C17.64 21.508 18 20.692 18 19.684C18 18.676 17.64 17.86 16.92 17.236C16.224 16.612 15.288 16.3 14.112 16.3ZM42.0998 34.66C40.9478 35.596 39.7598 36.28 38.5358 36.712C37.3358 37.144 35.9918 37.36 34.5038 37.36C33.0878 37.36 31.7558 37.108 30.5078 36.604C29.2838 36.1 28.2158 35.416 27.3038 34.552C26.4158 33.688 25.7078 32.668 25.1798 31.492C24.6758 30.292 24.4238 29.008 24.4238 27.64C24.4238 26.296 24.6638 25.036 25.1438 23.86C25.6478 22.66 26.3318 21.628 27.1958 20.764C28.0598 19.876 29.0798 19.18 30.2558 18.676C31.4558 18.172 32.7278 17.92 34.0718 17.92C35.3918 17.92 36.6158 18.184 37.7438 18.712C38.8958 19.216 39.8798 19.912 40.6958 20.8C41.5358 21.688 42.1838 22.756 42.6398 24.004C43.1198 25.228 43.3598 26.56 43.3598 28V29.296H29.3918C29.7278 30.472 30.3758 31.42 31.3358 32.14C32.2958 32.86 33.4238 33.22 34.7198 33.22C35.5358 33.22 36.3038 33.088 37.0238 32.824C37.7438 32.56 38.3558 32.188 38.8598 31.708L42.0998 34.66ZM33.9638 21.988C32.8358 21.988 31.8638 22.336 31.0478 23.032C30.2318 23.704 29.6678 24.616 29.3558 25.768H38.5358C38.2238 24.664 37.6478 23.764 36.8078 23.068C35.9918 22.348 35.0438 21.988 33.9638 21.988ZM55.7021 33.04C56.5421 33.04 57.3221 32.872 58.0421 32.536C58.7861 32.2 59.4941 31.672 60.1661 30.952L63.1181 34.012C62.1581 35.068 61.0061 35.896 59.6621 36.496C58.3181 37.072 56.9261 37.36 55.4861 37.36C54.1181 37.36 52.8221 37.108 51.5981 36.604C50.3981 36.1 49.3541 35.416 48.4661 34.552C47.6021 33.688 46.9181 32.668 46.4141 31.492C45.9101 30.292 45.6581 29.008 45.6581 27.64C45.6581 26.272 45.9101 25 46.4141 23.824C46.9181 22.624 47.6021 21.592 48.4661 20.728C49.3541 19.84 50.3981 19.144 51.5981 18.64C52.8221 18.136 54.1181 17.884 55.4861 17.884C56.9741 17.884 58.4021 18.184 59.7701 18.784C61.1381 19.36 62.3021 20.176 63.2621 21.232L60.2381 24.436C59.5661 23.692 58.8461 23.128 58.0781 22.744C57.3101 22.36 56.4821 22.168 55.5941 22.168C54.1781 22.168 52.9781 22.696 51.9941 23.752C51.0341 24.808 50.5541 26.104 50.5541 27.64C50.5541 29.176 51.0461 30.46 52.0301 31.492C53.0381 32.524 54.2621 33.04 55.7021 33.04ZM71.6223 37.324C69.6063 37.324 67.9623 36.796 66.6903 35.74C65.4183 34.66 64.7823 33.268 64.7823 31.564C64.7823 29.788 65.4663 28.396 66.8343 27.388C68.2023 26.38 70.0863 25.876 72.4863 25.876C73.2543 25.876 74.0223 25.936 74.7903 26.056C75.5583 26.176 76.3143 26.356 77.0583 26.596V25.264C77.0583 24.184 76.7223 23.368 76.0503 22.816C75.3783 22.264 74.3943 21.988 73.0983 21.988C72.3063 21.988 71.4423 22.12 70.5063 22.384C69.5943 22.624 68.5503 23.008 67.3743 23.536L65.5743 19.9C67.0383 19.228 68.4543 18.724 69.8223 18.388C71.2143 18.052 72.5823 17.884 73.9263 17.884C76.4463 17.884 78.4023 18.496 79.7943 19.72C81.2103 20.92 81.9183 22.624 81.9183 24.832V37H77.0583V35.704C76.2663 36.256 75.4263 36.664 74.5383 36.928C73.6743 37.192 72.7023 37.324 71.6223 37.324ZM69.4983 31.456C69.4983 32.176 69.8103 32.752 70.4343 33.184C71.0583 33.592 71.8863 33.796 72.9183 33.796C73.7343 33.796 74.4783 33.7 75.1503 33.508C75.8463 33.292 76.4823 32.992 77.0583 32.608V29.8C76.4583 29.56 75.8223 29.392 75.1503 29.296C74.5023 29.176 73.8183 29.116 73.0983 29.116C71.9703 29.116 71.0823 29.332 70.4343 29.764C69.8103 30.172 69.4983 30.736 69.4983 31.456ZM90.583 10.72V37H85.651V11.8L90.583 10.72ZM99.3721 10.72V37H94.4401V11.8L99.3721 10.72Z" fill="black"/>
<path d="M116.153 32.536C117.473 32.536 118.709 32.26 119.861 31.708C121.013 31.156 122.033 30.364 122.921 29.332L126.341 32.716C125.141 34.132 123.605 35.26 121.733 36.1C119.885 36.94 117.977 37.36 116.009 37.36C114.113 37.36 112.337 37.024 110.681 36.352C109.049 35.68 107.633 34.768 106.433 33.616C105.233 32.464 104.285 31.096 103.589 29.512C102.917 27.928 102.581 26.224 102.581 24.4C102.581 22.576 102.929 20.872 103.625 19.288C104.321 17.68 105.269 16.3 106.469 15.148C107.669 13.996 109.085 13.084 110.717 12.412C112.373 11.74 114.137 11.404 116.009 11.404C118.025 11.404 119.981 11.836 121.877 12.7C123.773 13.54 125.309 14.68 126.485 16.12L122.957 19.612C122.069 18.508 121.025 17.668 119.825 17.092C118.625 16.492 117.353 16.192 116.009 16.192C114.881 16.192 113.813 16.408 112.805 16.84C111.821 17.248 110.969 17.824 110.249 18.568C109.529 19.288 108.965 20.152 108.557 21.16C108.149 22.144 107.945 23.224 107.945 24.4C107.945 25.552 108.149 26.632 108.557 27.64C108.989 28.624 109.565 29.476 110.285 30.196C111.029 30.916 111.893 31.492 112.877 31.924C113.885 32.332 114.977 32.536 116.153 32.536ZM129.069 37V11.8L134.001 10.72V19.72C134.721 19.12 135.513 18.664 136.377 18.352C137.265 18.04 138.225 17.884 139.257 17.884C141.417 17.884 143.193 18.58 144.585 19.972C145.977 21.364 146.673 23.152 146.673 25.336V37H141.741V26.056C141.741 24.88 141.381 23.932 140.661 23.212C139.965 22.492 139.029 22.132 137.853 22.132C137.037 22.132 136.293 22.3 135.621 22.636C134.973 22.948 134.433 23.404 134.001 24.004V37H129.069ZM167.221 34.66C166.069 35.596 164.881 36.28 163.657 36.712C162.457 37.144 161.113 37.36 159.625 37.36C158.209 37.36 156.877 37.108 155.629 36.604C154.405 36.1 153.337 35.416 152.425 34.552C151.537 33.688 150.829 32.668 150.301 31.492C149.797 30.292 149.545 29.008 149.545 27.64C149.545 26.296 149.785 25.036 150.265 23.86C150.769 22.66 151.453 21.628 152.317 20.764C153.181 19.876 154.201 19.18 155.377 18.676C156.577 18.172 157.849 17.92 159.193 17.92C160.513 17.92 161.737 18.184 162.865 18.712C164.017 19.216 165.001 19.912 165.817 20.8C166.657 21.688 167.305 22.756 167.761 24.004C168.241 25.228 168.481 26.56 168.481 28V29.296H154.513C154.849 30.472 155.497 31.42 156.457 32.14C157.417 32.86 158.545 33.22 159.841 33.22C160.657 33.22 161.425 33.088 162.145 32.824C162.865 32.56 163.477 32.188 163.981 31.708L167.221 34.66ZM159.085 21.988C157.957 21.988 156.985 22.336 156.169 23.032C155.353 23.704 154.789 24.616 154.477 25.768H163.657C163.345 24.664 162.769 23.764 161.929 23.068C161.113 22.348 160.165 21.988 159.085 21.988ZM171.503 37V11.8L176.435 10.72V26.164L184.535 18.244H190.115L181.331 26.848L190.655 37H184.355L176.435 28.432V37H171.503Z" fill="#8AB53B"/>
<g clip-path="url(#clip0)">
<path d="M229.865 7.92755L217.016 21.5193L212.99 25.779C212.99 25.779 212.989 25.779 212.989 25.7797C212.838 25.9405 212.631 26.056 212.405 26.0318H212.404C212.402 26.0318 212.4 26.0318 212.397 26.0318C212.173 26.0301 211.96 25.9348 211.809 25.7693L202.276 15.3631L197 20.6273L212.409 36.9718L222.09 26.8684L235.151 13.2377L229.865 7.92755Z" fill="#8AB53B"/>
<path d="M236.669 13.9877L222.495 28.7806L214.294 37.3377H218.132L240.545 13.4314L236.669 13.9877Z" fill="#8AB53B"/>
<path d="M203.891 14.738L212.412 24.0397L215.304 20.9801L208.442 14.0847L203.891 14.738Z" fill="#8AB53B"/>
<path d="M231.558 7.33872L236.565 12.3713L241 11.7341L235.992 6.70189L231.558 7.33872Z" fill="#8AB53B"/>
</g>
<defs>
<clipPath id="clip0">
<rect x="197" width="44" height="44" fill="white"/>
</clipPath>
</defs>
</svg>
